<svg version="1.0" xmlns="http://www.w3.org/2000/svg" width="512.000000pt" height="512.000000pt"
        viewBox="0 0 512.000000 512.000000" preserveAspectRatio="xMidYMid meet">
        <g transform="translate(0.000000,512.000000) scale(0.080000,-0.080000)" fill="#f4b74d" stroke="none">
                <path d="M2380 5114 c-19 -2 -78 -9 -130 -14 -330 -36 -695 -160 -990 -336
-375 -224 -680 -529 -904 -904 -175 -292 -291 -632 -338 -990 -16 -123 -16
-497 0 -620 82 -623 356 -1150 820 -1581 256 -239 575 -425 922 -539 274 -91
491 -124 800 -124 228 0 329 9 530 50 689 141 1304 583 1674 1204 175 292 291
632 338 990 16 123 16 497 0 620 -47 358 -163 698 -338 990 -224 375 -529 680
-904 904 -289 173 -634 291 -980 336 -88 12 -438 21 -500 14z m385 -304 c583
-54 1146 -347 1517 -790 715 -853 715 -2067 0 -2920 -371 -443 -934 -736
-1517 -790 -598 -55 -1196 135 -1665 528 -498 417 -800 1067 -800 1722 0 676
320 1341 847 1761 459 366 1041 542 1618 489z" />
                <path d="M2002 3720 c-18 -11 -41 -34 -52 -52 -20 -32 -20 -53 -20 -1108 0
-1055 0 -1076 20 -1108 61 -100 204 -95 258 8 l22 44 0 1056 0 1056 -22 44
c-39 75 -135 103 -206 60z" />
                <path d="M2970 3722 c-22 -12 -44 -35 -57 -62 l-23 -44 0 -1056 0 -1056 23
-44 c53 -103 196 -108 257 -8 20 32 20 53 20 1108 0 1055 0 1076 -20 1108 -41
68 -129 91 -200 54z" />
        </g>
</svg>