<svg width="512.000000pt" height="512.000000pt" viewBox="0 0 512.000000 512.000000" preserveAspectRatio="xMidYMid meet">
        <g transform="translate(0.000000,512.000000) scale(0.080000,-0.080000)" fill="#665dfe" stroke="none">
                <path d="M2321 5110 c-467 -46 -923 -224 -1310 -513 -124 -92 -396 -364 -488
-488 -147 -196 -288 -455 -368 -673 -48 -131 -108 -371 -131 -521 -27 -181
-25 -552 4 -735 45 -275 116 -498 237 -745 138 -281 260 -451 490 -680 229
-230 399 -352 680 -490 246 -121 469 -192 745 -237 195 -31 565 -31 760 0 276
45 499 116 745 237 281 138 451 260 680 490 230 229 352 399 490 680 88 179
132 296 180 476 63 240 78 371 78 649 0 278 -15 409 -78 649 -48 180 -92 297
-180 476 -138 281 -260 451 -490 680 -229 230 -399 352 -680 490 -246 121
-473 193 -740 235 -150 24 -476 34 -624 20z m487 -180 c425 -45 830 -205 1182
-466 135 -100 374 -339 474 -474 261 -352 421 -757 466 -1182 13 -125 13 -371
0 -496 -45 -425 -205 -830 -466 -1182 -100 -135 -339 -374 -474 -474 -352
-261 -757 -421 -1182 -466 -125 -13 -371 -13 -496 0 -425 45 -830 205 -1182
466 -135 100 -374 339 -474 474 -261 352 -421 757 -466 1182 -13 125 -13 371
0 496 45 425 205 830 466 1182 100 135 339 374 474 474 343 254 728 410 1140
461 130 16 408 18 538 5z" />
                <path d="M1629 4167 c-9 -7 -21 -22 -27 -34 -17 -31 -17 -3115 0 -3146 17 -32
39 -46 74 -47 25 0 282 162 1225 775 984 638 1198 781 1214 810 l20 35 -20 35
c-16 29 -230 172 -1214 810 -1238 804 -1227 797 -1272 762z m1448 -1087 c436
-283 793 -517 793 -520 0 -3 -357 -237 -793 -520 -435 -283 -908 -590 -1049
-682 l-258 -167 0 1369 0 1369 258 -167 c141 -92 614 -399 1049 -682z" />
                <path d="M1883 3623 c-7 -2 -13 -17 -13 -33 0 -26 53 -62 755 -519 416 -270
764 -491 773 -491 24 0 42 19 42 46 0 18 -133 108 -755 513 -416 270 -763 491
-773 490 -9 0 -23 -3 -29 -6z" />
        </g>
</svg>