<svg version="1.0" xmlns="http://www.w3.org/2000/svg" width="512.000000pt" height="512.000000pt"
    viewBox="0 0 512.000000 512.000000" preserveAspectRatio="xMidYMid meet">
    <g transform="translate(0.000000,512.000000) scale(0.080000,-0.080000)" fill="#45a675" stroke="none">
        <path d="M2358 4920 c-480 -44 -931 -225 -1307 -528 -404 -324 -704 -800 -825
-1308 -258 -1085 272 -2216 1268 -2704 236 -115 462 -187 716 -227 162 -25
538 -25 700 0 536 85 1021 336 1384 718 558 587 782 1397 605 2192 -55 248
-193 571 -337 787 -387 580 -985 956 -1677 1056 -127 18 -401 25 -527 14z
m1493 -1466 c58 -30 89 -104 75 -181 -7 -34 -100 -131 -884 -915 -589 -590
-883 -878 -897 -878 -14 0 -175 155 -482 463 -500 500 -485 483 -468 574 9 49
69 109 118 118 90 17 84 22 462 -356 193 -192 357 -349 365 -349 8 0 357 342
775 760 596 596 770 764 801 775 42 16 92 12 135 -11z" />
    </g>
</svg>